<?xml version="1.0" encoding="UTF-8" standalone="no"?>
<!DOCTYPE svg PUBLIC "-//W3C//DTD SVG 1.1//EN" "http://www.w3.org/Graphics/SVG/1.1/DTD/svg11.dtd">
<svg width="100%" height="100%" viewBox="0 0 64 64" version="1.1" xmlns="http://www.w3.org/2000/svg" xmlns:xlink="http://www.w3.org/1999/xlink" xml:space="preserve" xmlns:serif="http://www.serif.com/" style="fill-rule:evenodd;clip-rule:evenodd;stroke-linejoin:round;stroke-miterlimit:2;">
    <g transform="matrix(2.32977,0,0,2.32977,-42.6645,-42.5526)">
        <g transform="matrix(1,0,0,1,10.9147,17.4059)">
            <g transform="matrix(12,0,0,12,33.2233,17.6541)">
            </g>
            <text x="8.935px" y="17.654px" style="font-family:'HuXiaoBo-jijiati-Regular', 'HuXiaoBo-jijiati';font-size:12px;">LMM</text>
        </g>
        <g transform="matrix(1,0,0,1,16,16)">
            <path d="M4.105,10.806L4.105,9.132L16,2.265L27.895,9.132L27.895,10.806L25.874,10.806L25.874,10.3L16,4.599L6.126,10.3L6.126,10.806L4.105,10.806ZM27.895,21.194L27.895,22.868L16,29.735L4.105,22.868L4.105,21.194L6.126,21.194L6.126,21.7L16,27.401L25.874,21.7L25.874,21.194L27.895,21.194Z"/>
        </g>
    </g>
</svg>
